<?xml version="1.0" encoding="UTF-8"?>
<svg id="Layer_2" data-name="Layer 2" xmlns="http://www.w3.org/2000/svg" xmlns:xlink="http://www.w3.org/1999/xlink" viewBox="0 0 172 80">
  <defs>
    <style>
      .cls-1 {
        fill: url(#linear-gradient-2);
      }

      .cls-2 {
        fill: #fff;
      }

      .cls-3 {
        fill: #df8325;
      }

      .cls-4 {
        fill: #ccc;
      }

      .cls-5 {
        fill: url(#linear-gradient);
      }
    </style>
    <linearGradient id="linear-gradient" x1="7.2" y1="69.89" x2="34.12" y2="28.44" gradientUnits="userSpaceOnUse">
      <stop offset="0" stop-color="#df8325"/>
      <stop offset="1" stop-color="#f4d03f"/>
    </linearGradient>
    <linearGradient id="linear-gradient-2" x1="26.51" y1="80" x2="26.51" y2="39.18" gradientUnits="userSpaceOnUse">
      <stop offset="0" stop-color="#2e3096"/>
      <stop offset="1" stop-color="#2e86c1"/>
    </linearGradient>
  </defs>
  <g id="Layer_1-2" data-name="Layer 1">
    <g>
      <g>
        <path class="cls-2" d="M71.29,63.78h10.4v3.55h-14.8v-19.12h14.45v3.55h-10.05v4.15h8.88v3.44h-8.88v4.42ZM89.91,56.41c.58-.33,1.24-.49,1.97-.49.67,0,1.3.16,1.87.49.57.33,1.05.84,1.43,1.53l3.3-1.77c-.55-1.2-1.39-2.13-2.54-2.77-1.15-.65-2.49-.97-4.04-.97s-2.99.32-4.23.97c-1.24.65-2.21,1.54-2.91,2.68-.7,1.14-1.05,2.44-1.05,3.92s.35,2.76,1.05,3.91c.7,1.15,1.67,2.04,2.91,2.69,1.24.65,2.65.97,4.23.97s2.89-.32,4.04-.97c1.15-.65,1.99-1.56,2.54-2.74l-3.3-1.8c-.38.71-.86,1.22-1.43,1.54-.57.32-1.2.48-1.87.48-.73,0-1.38-.16-1.97-.49-.58-.33-1.04-.79-1.38-1.39-.34-.6-.51-1.33-.51-2.18s.17-1.58.51-2.18c.34-.6.8-1.07,1.38-1.39ZM115.8,59.98c0,1.46-.35,2.75-1.04,3.89-.69,1.14-1.65,2.03-2.87,2.69-1.22.66-2.6.98-4.15.98s-2.95-.33-4.16-.98c-1.21-.66-2.17-1.55-2.87-2.69-.7-1.14-1.05-2.43-1.05-3.89s.35-2.78,1.05-3.92c.7-1.14,1.66-2.03,2.87-2.67,1.21-.65,2.6-.97,4.16-.97s2.93.32,4.15.97c1.22.65,2.17,1.53,2.87,2.66.69,1.13,1.04,2.44,1.04,3.93ZM111.49,59.98c0-.85-.16-1.58-.49-2.18-.33-.6-.78-1.07-1.34-1.39-.56-.33-1.2-.49-1.91-.49s-1.35.16-1.91.49c-.56.33-1.02.79-1.35,1.39-.34.6-.51,1.33-.51,2.18s.17,1.56.51,2.17c.34.61.79,1.08,1.35,1.41.56.33,1.2.49,1.91.49s1.34-.16,1.91-.49c.56-.33,1.01-.8,1.34-1.41.33-.61.49-1.33.49-2.17Z"/>
        <path class="cls-2" d="M136.23,48.22l-8.27,19.12h-4.37l-8.25-19.12h4.78l5.81,13.65,5.9-13.65h4.4ZM154.31,67.33h4.26v-20.26h-4.26v20.26ZM150.43,56.05c.69,1.13,1.04,2.44,1.04,3.93s-.35,2.75-1.04,3.89c-.69,1.14-1.65,2.03-2.87,2.69-1.22.66-2.6.98-4.15.98s-2.95-.33-4.16-.98c-1.21-.66-2.17-1.55-2.87-2.69-.7-1.14-1.05-2.43-1.05-3.89s.35-2.78,1.05-3.92c.7-1.14,1.66-2.03,2.87-2.68,1.21-.65,2.6-.97,4.16-.97s2.93.32,4.15.97c1.22.65,2.18,1.53,2.87,2.66ZM147.15,59.99c0-.86-.16-1.58-.49-2.18-.33-.6-.77-1.07-1.34-1.39-.56-.33-1.2-.49-1.91-.49s-1.35.16-1.91.49c-.56.33-1.02.79-1.35,1.39-.34.6-.51,1.33-.51,2.18s.17,1.56.51,2.17c.34.61.79,1.08,1.35,1.41.56.33,1.2.49,1.91.49s1.35-.16,1.91-.49c.56-.33,1.01-.8,1.34-1.41.33-.61.49-1.33.49-2.17ZM170.85,63.62c-.47.36-1.05.55-1.72.55-.56,0-1.01-.17-1.34-.51-.33-.34-.49-.81-.49-1.43v-6.31h3.66v-3.28h-3.66v-3.25h-4.26v3.25h-2.27v3.28h2.27v6.36c0,1.75.48,3.06,1.45,3.95.96.88,2.31,1.32,4.04,1.32.66,0,1.29-.08,1.9-.23.61-.15,1.13-.39,1.57-.7l-1.15-3Z"/>
        <path class="cls-4" d="M114.85,79.29h4.24v.65h-4.99v-7.06h4.84v.65h-4.09v2.51h3.65v.64h-3.65v2.62ZM129.19,78.61l-4.55-5.72h-.62v7.06h.75v-5.72l4.54,5.72h.62v-7.06h-.74v5.72ZM136.15,76.67h3.65v-.64h-3.65v-2.51h4.09v-.65h-4.84v7.06h4.99v-.65h-4.24v-2.62ZM149.23,77.52l1.73,2.42h-.82l-1.61-2.27c-.18.02-.37.04-.57.04h-1.9v2.24h-.75v-7.06h2.64c.89,0,1.6.21,2.11.64.51.43.77,1.02.77,1.78,0,.5-.12.93-.35,1.29-.23.36-.56.64-.99.83-.09.04-.18.07-.28.1ZM149.55,76.6c.37-.31.55-.74.55-1.3s-.18-1-.55-1.31c-.37-.31-.9-.46-1.61-.46h-1.88v3.54h1.88c.71,0,1.24-.15,1.61-.46ZM156.76,74.32c.27-.27.59-.47.96-.61.37-.14.77-.22,1.2-.22.41,0,.79.06,1.15.19.36.13.68.34.98.64l.46-.47c-.32-.34-.7-.6-1.14-.77-.45-.17-.94-.25-1.48-.25s-1.03.09-1.49.27c-.45.18-.85.43-1.18.75-.34.32-.6.7-.78,1.14-.18.44-.28.91-.28,1.43s.09.99.28,1.43c.18.44.44.82.78,1.14.33.32.73.57,1.18.75.45.18.95.27,1.49.27.49,0,.96-.08,1.41-.23.45-.15.84-.37,1.18-.67v-2.69h-.72v2.37c-.22.16-.45.29-.7.37-.36.12-.74.18-1.14.18-.43,0-.83-.07-1.19-.22-.37-.14-.69-.35-.96-.62-.27-.27-.48-.58-.64-.93-.15-.36-.23-.74-.23-1.16s.08-.81.23-1.16c.15-.35.36-.66.64-.93ZM172,72.88h-.75l-2.42,3.96-2.42-3.96h-.8l2.82,4.62v2.44h.74v-2.44l2.82-4.62Z"/>
      </g>
      <path class="cls-5" d="M22.55,53.34l.69-2.41h-8.75l2.86-16.22.29.02c.58.03,1.17.05,1.74.05,4.57,0,8.7-1.07,12.62-3.26,1.25-.7,2.36-1.46,3.34-2.27l-6.57,14.36h8.22l-20.85,32.1,6.41-22.36Z"/>
      <path class="cls-1" d="M42.78,39.18l-16.27,25.05-.48-.74-5.12,7.88.48.74,5.12,7.88,5.12-7.88,21.39-32.94h-10.24ZM19.43,53.34h-7.82l.42-2.41,1.24-7.06-3.04-4.68H0l16.75,25.8,3.14-10.94-.46-.7Z"/>
      <path class="cls-2" d="M17.78,32.27c.63-3.65,2.05-6.94,3.72-10.24,2.34-4.64,5.49-8.35,9.12-12.35-7.56,4.46-12.92,11.7-15.75,20.15-3.52-7.3-1.89-16.3,4.63-21.94C26.53,1.8,36.53,0,45.73,0c-2.32,2.32-2.79,5.09-3.43,7.97-1.91,8.59-2.87,16.57-11.49,21.39-3.91,2.19-8.17,3.18-13.02,2.9Z"/>
      <path class="cls-3" d="M35.34,29.24l-1.56,3.4c-.84.64-1.76,1.25-2.77,1.82-3.92,2.19-8.05,3.26-12.62,3.26-.52,0-1.04-.01-1.57-.04l.53-2.97.29.02c.58.03,1.17.05,1.74.05,4.57,0,8.7-1.07,12.62-3.26,1.25-.7,2.36-1.46,3.34-2.27Z"/>
    </g>
  </g>
</svg>